# xmcd
#
# Track frame offsets: 
#        150
#        17225
#        34827
#        51915
#        71005
#        83375
#        97775
#        114935
#        127967
#        146077
#        163670
#        177632
#        193295
#        209557
#        226482
#        240755
#        258720
#        274952
#        296592
#        313090
#        324840
#
# Disc length: 4447 seconds
#
# Revision: 4
# Processed by: cddbd v1.5.2PL0 Copyright (c) Steve Scherf et al.
# Submitted via: ExactAudioCopyFreeDBPlugin 1.0
#
DISCID=32115d15
DTITLE=Various Artist - Real Australian Blues Volume 1
DYEAR=1992
DGENRE=Blues
TTITLE0=Dutch Tilders and The Blues Club - Bad Books
TTITLE1=The Backsliders - Moon Going Down
TTITLE2=Cross The Border - Somebody's Jiving In My Bed
TTITLE3=Checkerboard Lounge - Crying Earth
TTITLE4=Matt Walker - Welcome Me Home
TTITLE5=Phil Manning - Can't Stop
TTITLE6=Texas Flood And The Blowzone Horns - Leavin' You
TTITLE7='Lil' Kenny Sutherland - Count On It
TTITLE8=Kelly Auty - You Made Me Feel This Way
TTITLE9=Dan Walker and Al McInnes - Door To Door
TTITLE10=The Swingin Sidewalks - Winkelstein Rag
TTITLE11=Foreday Riders - That's Your Problem
TTITLE12=Marco Goldsmith's Blue Heat - I Want Your Love
TTITLE13=Bondi Cigars - The Path Is Clear
TTITLE14=The Mojo's - Fool's Game
TTITLE15=Boogie 2 Shoes - Southern Cross For Christmas
TTITLE16=Bruhaas - Love Mechanic
TTITLE17=Hippos - Three Steps
TTITLE18=Nick Charles and Alex Burns - Letter To Tamba
TTITLE19=503 - Losin'
TTITLE20=Rocket 88's - Rocket
EXTD=
EXTT0=
EXTT1=
EXTT2=
EXTT3=
EXTT4=
EXTT5=
EXTT6=
EXTT7=
EXTT8=
EXTT9=
EXTT10=
EXTT11=
EXTT12=
EXTT13=
EXTT14=
EXTT15=
EXTT16=
EXTT17=
EXTT18=
EXTT19=
EXTT20=
PLAYORDER=
